<svg xmlns="http://www.w3.org/2000/svg" id="Capa_2" data-name="Capa 2" viewBox="335 290 395 395">
  <defs>
    <style>
      .cls-1 {
        fill: #000;
      }

      .cls-1, .cls-2, .cls-3 {
        stroke-width: 0px;
      }

      .cls-4 {
        fill: none;
        stroke-width: 5.51px;
      }

      .cls-4, .cls-5 {
        stroke: #000;
        stroke-miterlimit: 10;
      }

      .cls-2 {
        fill: #b20005;
      }

      .cls-5 {
        fill: #dd0721;
        stroke-width: 2.98px;
      }

      .cls-3 {
        fill: #fff;
      }
    </style>
  </defs>
  <g id="Capa_1-2" data-name="Capa 1">
    <g>
      <polygon class="cls-3" points="527.66 599.64 448.69 632.45 424.33 302.45 670.32 543.28 589.14 578.71 637.92 630.97 552.81 679.63 527.66 599.64"/>
      <path class="cls-1" d="M429.39,313.36l233.46,228.55-80.91,35.31,49.22,52.73-75.87,43.38-24.96-79.39-77.83,32.33-23.1-312.91M419.26,291.55l1.66,22.43,23.1,312.91.87,11.73,10.87-4.51,69.25-28.77,22.18,70.52,3.16,10.06,9.16-5.24,75.87-43.38,9.32-5.33-7.32-7.85-41.02-43.95,69.9-30.51,11.55-5.04-9.01-8.82-233.46-228.55-16.07-15.74h0Z"/>
    </g>
    <g>
      <g>
        <g>
          <path class="cls-3" d="M551.41,482.73c-6.26,0-11.75-1.49-15.07-4.08-4.41-3.45-8.11-8.68-11.66-16.45-2.88-6.25-5.26-13.41-7.27-21.91-.03-.14-.13-.52-.28-1.05-1.16-4.27-1.63-6.43-1.8-7.52l37.52-25.87c12.09,4.27,23.17,12.6,29.03,21.86,5.37,8.5,6.71,18.49,3.76,28.13-3.31,10.83-11.53,20.04-21.99,24.63-3.23,1.43-7.69,2.24-12.25,2.24h0Z"/>
          <path class="cls-1" d="M553.25,409.03c10.99,4.19,20.92,11.81,26.24,20.2,6.31,9.99,5.36,19.54,3.45,25.8-3.07,10.05-10.71,18.6-20.43,22.87-2.87,1.27-6.92,2-11.1,2-5.56,0-10.54-1.3-13.32-3.47-4.04-3.16-7.48-8.05-10.84-15.42-2.8-6.07-5.11-13.05-7.08-21.35-.04-.16-.15-.57-.3-1.14-.7-2.58-1.13-4.32-1.4-5.51l34.78-23.98M552.39,402.74l-39.84,27.47c-.79.55,1.9,9.86,2.11,10.74,1.82,7.67,4.15,15.27,7.45,22.43,2.96,6.48,6.8,13.05,12.49,17.51,4.15,3.24,10.55,4.68,16.81,4.68,4.93,0,9.78-.89,13.39-2.48,20.73-9.11,33.16-35.24,19.49-56.88-6.84-10.8-19.15-19.14-31.07-23.22-.27-.07-.51-.17-.81-.25h0Z"/>
        </g>
        <path class="cls-4" d="M591.86,379.13s-40.39,27.65-40.47,27.62"/>
      </g>
      <ellipse class="cls-1" cx="528.79" cy="440.16" rx="10.99" ry="14.53" transform="translate(-149.24 323.41) rotate(-30)"/>
      <g>
        <g>
          <path class="cls-3" d="M449.02,496.64c-1.22,0-2.37-.08-3.41-.24-11.3-1.73-21.62-8.5-27.63-18.1-5.34-8.55-6.64-18.55-3.65-28.15,3.26-10.46,11.81-21.38,22.38-28.63l42.94,15.27c.11,1.1.22,3.31.21,7.74,0,.54,0,.93,0,1.08.26,8.72-.18,16.25-1.35,23.03-1.41,8.44-3.64,14.45-7,18.92-4.44,5.9-14.9,9.09-22.49,9.09Z"/>
          <path class="cls-1" d="M437.15,424.68l39.8,14.15c.05,1.21.08,3.01.08,5.68,0,.59,0,1.02,0,1.17.25,8.53-.18,15.88-1.31,22.49-1.33,7.96-3.39,13.58-6.47,17.67-3.3,4.39-12.38,7.96-20.23,7.96-1.08,0-2.08-.07-2.99-.21-10.49-1.6-20.08-7.89-25.65-16.8-3.47-5.55-6.86-14.53-3.35-25.8,2.96-9.49,10.58-19.42,20.11-26.31M436.35,418.38c-.27.16-.48.31-.72.45-10.46,7.02-20.19,18.27-24,30.47-7.6,24.44,11.17,46.46,33.55,49.89,1.2.19,2.49.28,3.85.28,8.65,0,19.86-3.71,24.75-10.22,4.35-5.78,6.35-13.12,7.53-20.14,1.33-7.77,1.62-15.72,1.39-23.59-.03-.9.16-10.59-.74-10.92l-45.6-16.22h0Z"/>
        </g>
        <path class="cls-4" d="M438.36,422c-.07.04-34.49-13.05-34.49-13.05"/>
      </g>
      <ellipse class="cls-1" cx="423.66" cy="454.34" rx="12.17" ry="14.53" transform="translate(-48.2 50.29) rotate(-6.43)"/>
    </g>
   
    <g>
      <g>
        <path class="cls-5" d="M608.92,530.94c-11.26-5.93-25.28-6.3-36.83-.97-10.3,4.75-18.42,13.91-22.05,24.63-1.72,5.08-3.52,9.98-3.9,15.41-.37,5.41.32,10.87,1.9,16.05s4.03,10.04,7.26,14.36c8.83,11.81,22.73,19.28,37.25,21.88,5.71,1.02,11.74,1.32,17.19-.68,5.89-2.17,10.51-6.78,14.72-11.44,8.94-9.91,16.96-20.65,23.92-32.03.59-.97,1.19-1.98,1.38-3.1.2-1.15-.05-2.33-.29-3.47-1.57-7.53-2.7-15.19-5.33-22.41-2.63-7.22-6.96-14.13-13.49-18.17-6.54-4.04-15.54-4.64-21.72-.05Z"/>
        <path class="cls-5" d="M610.54,621.79c.94,1.1,2.9,1.37,4.17,2.02,1.63.83,3.21,1.75,4.87,2.52,4.95,2.28,10.48,3.38,15.54.78,6.84-3.5,11.72-10.02,15.65-16.43,4.02-6.57,7.63-13.53,10.83-20.53.94-2.05,1.41-4.19-.3-5.96-4.1-4.26-11.29-9.14-11.3-9.14.44.3-11.7,17.41-12.65,18.75-5.19,7.37-10.62,14.5-17.26,20.67-1.45,1.34-2.95,2.63-4.51,3.83-1.6,1.22-3.56,2.17-5.05,3.49Z"/>
      </g>
      <path class="cls-2" d="M646.01,578.64c.16-.21-.89-2.53-1.06-2.92-4.43-9.94-9.78-19.36-16.55-27.91-1.97-2.5-7.66-8.52-8.43-9.16-.92-.76-9.26-7.92-9.26-7.92,0,0,4.21-1.63,6.98-1.5,2.58.12,7.25-.48,13.73,4.1,1.99,1.41,3.67,3.11,4.99,4.9,4.12,5.56,4.67,7.91,5.91,10.44.9,1.83,1.85,5.58,2.36,7.58.87,3.47,2.95,14,2.95,14,0,0,.85,4.18.5,5.04-.56,1.39-2.12,3.35-2.12,3.35Z"/>
      <path class="cls-1" d="M628.74,548.44c-2.9-3.48-6.02-6.8-9.58-9.5-3.54-2.71-7.59-4.62-11.57-6.98l1.65-2.47c3.55,2.67,7.52,5.1,10.89,8.32,3.36,3.18,6.11,6.85,8.62,10.63,0,0-2.51-3.78,0,0Z"/>
    </g>
    <g>
      <path class="cls-5" d="M489.05,620.9c2.03-14.07-5.54-28.67-15.15-38.48-3.11-3.17-6.79-5.93-11.04-7.34-5.88-1.96-13.05-2.05-18.15,1.92.12-.09-2.91-2.23-3.11-2.34-3.69-2-8.81-1.2-12.77-.57-9.94,1.58-19.49,6.71-26.74,13.65-10.98,10.51-12.99,27.6-9.43,41.75,3.76,14.95,13.67,29.49,28.4,35.43,4.57,1.84,9.47,2.82,14.39,2.96,9.87.28,19.52-2.97,27.59-8.58,7.3-5.06,12.98-12.65,17.79-20.03,3.71-5.7,7.23-11.52,8.21-18.36Z"/>
      <path class="cls-5" d="M502.23,632.47s-2.74-1.62-6.97-5.19c-1.56-1.32-6.21-6.37-6.21-6.37,0,0-3.97,12.86-12.7,24.85-8.49,11.65-23.21,20.31-23.21,20.31l13.01,8.62s15.28-8.83,22.51-18.45c7.23-9.62,13.58-23.77,13.58-23.77Z"/>
      <path class="cls-2" d="M394.47,630.87c.24-.23,3.28.81,3.72.91,11.78,2.78,24.3,5.83,36.17,1.84,1.7-.57,3.36-1.27,4.97-2.08-.73.37-1.47,1.19-2.16,1.66-1.01.69-2.04,1.35-3.05,2.05s-2.21,1.37-3.19,2.19c-2.43,2.01,2.2,6.35,3.51,7.72,3.93,4.13,8.63,7.79,13.99,9.86,5.36,2.08,15.99,1.03,16.17,1,0,0-1.86,1.83-5.23,3.94-2.74,1.71-6.19,3.17-8.21,3.94-4.51,1.72-11.72,2.86-18.05,2.3-2.74-.24-6.48-.9-9.21-1.82-3.75-1.27-6.1-2.61-7.44-3.36-1.23-.69-4.16-2.66-6.7-5.04-2.24-2.1-4.41-4.43-5.76-6.12-1.57-1.97-2.4-3.28-3.8-5.62-.6-1-2.27-4.2-3.53-7.23s-2.2-6.11-2.2-6.11Z"/>
      <path class="cls-1" d="M446.77,575.61c-.55.15-.8.77-1.09,1.21-1.91,3.4-3.61,7.07-4.64,10.82-2.9,8.84,3.64,16.57,11.58,19.87,4.09,1.84,8.52,2.82,13.04,3.13-4.57.95-9.45.52-13.88-.96-9.57-2.87-17.22-12.73-12.94-22.75,1.48-3.89,3.7-7.32,6.48-10.37.41-.38.84-.96,1.45-.95h0Z"/>
      <path class="cls-1" d="M453.86,608.68c-.94,17.37-18.16,29.22-33.8,32.6-5.36,1.06-11.05,1.06-16.19-.8,5.22,1.62,10.81,1.36,16.03.08,14.51-3.79,30.82-15.71,30.99-31.92,0,0,2.98.05,2.98.05h0Z"/>
    </g>
   </g> 
</svg>