<?xml version="1.0" encoding="UTF-8"?>
<svg id="Capa_2" data-name="Capa 2" xmlns="http://www.w3.org/2000/svg" viewBox="0 0 677.8 685.93">
  <defs>
    <style>
      .cls-1 {
        fill: #000;
      }

      .cls-1, .cls-2, .cls-3 {
        stroke-width: 0px;
      }

      .cls-4 {
        fill: none;
        stroke-width: 5.51px;
      }

      .cls-4, .cls-5 {
        stroke: #000;
        stroke-miterlimit: 10;
      }

      .cls-2 {
        fill: #b20005;
      }

      .cls-5 {
        fill: #dd0721;
        stroke-width: 2.98px;
      }

      .cls-3 {
        fill: #fff;
      }
    </style>
  </defs>
  <g id="Capa_1-2" data-name="Capa 1">
    <g>
      <polygon class="cls-3" points="32.51 564.26 85.5 516.27 7.56 474.16 272.86 254.78 220.95 581.58 145 542.27 113.24 619.87 32.51 564.26"/>
      <path class="cls-1" d="M266.9,265.22l-49.23,309.88-74.85-38.73-31.52,77.02-71.97-49.58,53.46-48.42-77.67-41.96,251.78-208.2M278.82,244.34l-17.33,14.33L9.71,466.87l-9.71,8.03,11.09,5.99,67.1,36.25-44.56,40.36-7.96,7.21,8.84,6.09,71.97,49.58,8.69,5.98,4-9.76,28-68.42,66.6,34.47,10.45,5.41,1.85-11.62,49.23-309.88,3.53-22.21h0Z"/>
    </g>
    <g>
      <polygon class="cls-3" points="527.66 599.64 448.69 632.45 424.33 302.45 670.32 543.28 589.14 578.71 637.92 630.97 552.81 679.63 527.66 599.64"/>
      <path class="cls-1" d="M429.39,313.36l233.46,228.55-80.91,35.31,49.22,52.73-75.87,43.38-24.96-79.39-77.83,32.33-23.1-312.91M419.26,291.55l1.66,22.43,23.1,312.91.87,11.73,10.87-4.51,69.25-28.77,22.18,70.52,3.16,10.06,9.16-5.24,75.87-43.38,9.32-5.33-7.32-7.85-41.02-43.95,69.9-30.51,11.55-5.04-9.01-8.82-233.46-228.55-16.07-15.74h0Z"/>
    </g>
    <path class="cls-1" d="M182.14,255.07c-12.28-51.45-24.17-107.57-35.12-159.43,28.31,11.35,64.03,25.79,92.29,37.4,0,0,27.5,11.36,27.5,11.36l-8.6,1.88c27.04-30.54,64.23-72.12,91.61-102.35,13.09-14.55,26.73-29.39,39.89-43.92,0,0,4.98,12.58,4.98,12.58,18.87,47.94,39.27,100.8,57.48,148.99,0,0-7.65-4.32-7.65-4.32,37.68-5.69,81.34-11.9,119.07-17.11-15.28,37.43-32.11,77.86-48.31,114.92,8.26-25.7,18.74-57.63,27.55-83.3,3.14-9.23,6.23-18.47,9.43-27.67,0,0,4.95,6.03,4.95,6.03l-27.58,5.36c-26.79,5.15-61.45,11.67-88.25,16.56-5.9-14.03-11.66-28.17-17.46-42.22-14.1-34.32-31.26-76.74-44.93-111.02,0,0,14.09,2.56,14.09,2.56-10.24,11.32-20.44,22.67-30.73,33.94-28.92,31.86-67.41,73.69-96.66,105.19-35.88-15.88-77.7-34.69-113.41-51.01,0,0,7.48-5.98,7.48-5.98,0,0,5.93,37.83,5.93,37.83,5.68,36.53,11.59,77.27,16.43,113.74h0Z"/>
    <g>
      <g>
        <path class="cls-3" d="M131.77,454.26c-6.78,0-15.11-2.75-19.81-6.53-8.92-7.15-14.48-18.17-14.88-29.49-.35-10.08,3.52-19.38,10.91-26.21,8.05-7.42,20.92-12.61,33.7-13.6l29.55,34.7c-.45,1.01-1.47,2.98-3.69,6.81-.27.47-.46.8-.53.93-4.14,7.68-8.29,13.99-12.68,19.27-5.44,6.6-10.38,10.69-15.53,12.88-1.93.82-4.3,1.24-7.04,1.24Z"/>
        <path class="cls-1" d="M140.49,381.39l27.39,32.16c-.56,1.07-1.43,2.65-2.77,4.96-.3.51-.51.88-.58,1.02-4.05,7.52-8.1,13.67-12.38,18.82-5.14,6.23-9.73,10.06-14.44,12.07-1.56.66-3.61,1.01-5.93,1.01-6.2,0-13.79-2.48-18.05-5.91-8.28-6.63-13.44-16.87-13.81-27.37-.23-6.54,1.32-16.01,10-24.02,7.31-6.74,18.88-11.53,30.58-12.73M142.95,375.54c-.31,0-.57.03-.85.03-12.57.85-26.62,5.72-36.02,14.39-18.8,17.36-13.57,45.82,4.11,59.98,5.05,4.06,13.83,7.16,21.59,7.16,2.95,0,5.76-.45,8.15-1.46,6.66-2.83,12.06-8.18,16.6-13.68,5.04-6.06,9.26-12.8,13-19.74.42-.79,5.44-9.09,4.81-9.83l-31.38-36.84h0Z"/>
      </g>
      <path class="cls-4" d="M142.88,379.68c-.08,0-31.94-37.16-31.94-37.16"/>
    </g>
    <ellipse class="cls-1" cx="156.07" cy="417.79" rx="14.53" ry="10.99" transform="translate(-249.71 232.73) rotate(-45)"/>
    <g>
      <g>
        <path class="cls-3" d="M226.08,493.86c-1.41,0-2.83-.08-4.21-.23-8.02-.87-19.7-7.72-22.74-15.25-2.09-5.19-2.69-11.57-1.87-20.08.63-6.85,2.15-14.24,4.66-22.61.04-.14.14-.51.28-1.04,1.13-4.28,1.81-6.38,2.2-7.42l45.43-3.64c8.33,9.74,13.77,22.5,14.21,33.45.38,9.46-2.87,18.06-9.39,24.85-7.2,7.49-17.88,11.96-28.57,11.96h0Z"/>
        <path class="cls-1" d="M248.6,426.55c7.42,9.12,12.21,20.69,12.62,30.62.44,10.97-4.44,18.44-8.61,22.77-6.67,6.95-16.59,11.09-26.53,11.09-1.31,0-2.62-.07-3.91-.21-7.09-.77-17.77-6.95-20.41-13.49-1.92-4.76-2.45-10.71-1.68-18.77.61-6.65,2.1-13.86,4.55-22.03.05-.16.16-.57.31-1.14.68-2.58,1.18-4.31,1.54-5.47l42.11-3.37M250.99,420.67l-48.24,3.86c-.96.08-3.28,9.49-3.54,10.35-2.26,7.55-4.05,15.3-4.77,23.15-.68,7.09-.64,14.7,2.06,21.41,3.52,8.73,16.16,16.04,25.05,17,1.5.17,3.02.25,4.52.25,21.06,0,41.75-15.89,40.79-39.76-.52-12.78-7.01-26.15-15.3-35.64-.2-.2-.36-.4-.58-.62h0Z"/>
      </g>
      <path class="cls-4" d="M284.81,419.96s-36.63,3.74-36.69,3.68"/>
    </g>
    <ellipse class="cls-1" cx="253.95" cy="458.68" rx="14.53" ry="12.17" transform="translate(-265.8 527.54) rotate(-68.58)"/>
    <g>
      <g>
        <g>
          <path class="cls-3" d="M551.41,482.73c-6.26,0-11.75-1.49-15.07-4.08-4.41-3.45-8.11-8.68-11.66-16.45-2.88-6.25-5.26-13.41-7.27-21.91-.03-.14-.13-.52-.28-1.05-1.16-4.27-1.63-6.43-1.8-7.52l37.52-25.87c12.09,4.27,23.17,12.6,29.03,21.86,5.37,8.5,6.71,18.49,3.76,28.13-3.31,10.83-11.53,20.04-21.99,24.63-3.23,1.43-7.69,2.24-12.25,2.24h0Z"/>
          <path class="cls-1" d="M553.25,409.03c10.99,4.19,20.92,11.81,26.24,20.2,6.31,9.99,5.36,19.54,3.45,25.8-3.07,10.05-10.71,18.6-20.43,22.87-2.87,1.27-6.92,2-11.1,2-5.56,0-10.54-1.3-13.32-3.47-4.04-3.16-7.48-8.05-10.84-15.42-2.8-6.07-5.11-13.05-7.08-21.35-.04-.16-.15-.57-.3-1.14-.7-2.58-1.13-4.32-1.4-5.51l34.78-23.98M552.39,402.74l-39.84,27.47c-.79.55,1.9,9.86,2.11,10.74,1.82,7.67,4.15,15.27,7.45,22.43,2.96,6.48,6.8,13.05,12.49,17.51,4.15,3.24,10.55,4.68,16.81,4.68,4.93,0,9.78-.89,13.39-2.48,20.73-9.11,33.16-35.24,19.49-56.88-6.84-10.8-19.15-19.14-31.07-23.22-.27-.07-.51-.17-.81-.25h0Z"/>
        </g>
        <path class="cls-4" d="M591.86,379.13s-40.39,27.65-40.47,27.62"/>
      </g>
      <ellipse class="cls-1" cx="528.79" cy="440.16" rx="10.99" ry="14.53" transform="translate(-149.24 323.41) rotate(-30)"/>
      <g>
        <g>
          <path class="cls-3" d="M449.02,496.64c-1.22,0-2.37-.08-3.41-.24-11.3-1.73-21.62-8.5-27.63-18.1-5.34-8.55-6.64-18.55-3.65-28.15,3.26-10.46,11.81-21.38,22.38-28.63l42.94,15.27c.11,1.1.22,3.31.21,7.74,0,.54,0,.93,0,1.08.26,8.72-.18,16.25-1.35,23.03-1.41,8.44-3.64,14.45-7,18.92-4.44,5.9-14.9,9.09-22.49,9.09Z"/>
          <path class="cls-1" d="M437.15,424.68l39.8,14.15c.05,1.21.08,3.01.08,5.68,0,.59,0,1.02,0,1.17.25,8.53-.18,15.88-1.31,22.49-1.33,7.96-3.39,13.58-6.47,17.67-3.3,4.39-12.38,7.96-20.23,7.96-1.08,0-2.08-.07-2.99-.21-10.49-1.6-20.08-7.89-25.65-16.8-3.47-5.55-6.86-14.53-3.35-25.8,2.96-9.49,10.58-19.42,20.11-26.31M436.35,418.38c-.27.16-.48.31-.72.45-10.46,7.02-20.19,18.27-24,30.47-7.6,24.44,11.17,46.46,33.55,49.89,1.2.19,2.49.28,3.85.28,8.65,0,19.86-3.71,24.75-10.22,4.35-5.78,6.35-13.12,7.53-20.14,1.33-7.77,1.62-15.72,1.39-23.59-.03-.9.16-10.59-.74-10.92l-45.6-16.22h0Z"/>
        </g>
        <path class="cls-4" d="M438.36,422c-.07.04-34.49-13.05-34.49-13.05"/>
      </g>
      <ellipse class="cls-1" cx="423.66" cy="454.34" rx="12.17" ry="14.53" transform="translate(-48.2 50.29) rotate(-6.43)"/>
    </g>
    <g>
      <path class="cls-5" d="M181.14,592.36c-9.62-10.47-11.62-26.79-9.23-40.31.77-4.37,2.26-8.72,4.96-12.3,3.74-4.94,9.61-9.06,16.06-8.67-.15,0,1.14-3.48,1.24-3.69,1.92-3.74,6.59-5.97,10.21-7.68,9.1-4.31,19.87-5.47,29.77-3.83,15,2.48,26.3,15.44,31.36,29.12,5.34,14.46,5.38,32.06-3.43,45.28-2.73,4.1-6.22,7.67-10.2,10.57-7.99,5.8-17.79,8.57-27.61,8.51-8.88-.06-17.85-3.1-26-6.48-6.28-2.6-12.47-5.43-17.14-10.51Z"/>
      <path class="cls-5" d="M176.79,609.35s1.35-2.88,2.82-8.22c.54-1.97,1.53-8.77,1.53-8.77,0,0,10.54,8.38,24.52,13.34s30.62,3.66,30.62,3.66l-5.87,14.46s-17.6,1.34-28.99-2.51c-11.4-3.85-24.63-11.94-24.63-11.94Z"/>
      <path class="cls-2" d="M264.72,547.47c-.28.19-1.63,1.85-1.93,2.18-8.16,8.95-16.76,18.54-28.81,21.95-1.73.49-3.49.85-5.27,1.09.81-.11,1.88.15,2.72.15,1.22,0,2.45-.03,3.67-.03s2.6-.12,3.87,0c3.14.29,1.77,6.48,1.46,8.35-.92,5.63-2.73,11.3-5.97,16.04-3.25,4.74-7.77,7.76-12.85,10.29-.16.08,2.79.48,6.77.31,3.23-.14,7.1-1.17,9.19-1.68,4.69-1.13,11.24-4.15,15.93-8.42,1.98-1.8,4.29-3.96,6.02-6.26,2.37-3.17,3.68-6.18,4.37-7.56.63-1.26,1.86-4.47,2.62-7.87.66-3,.95-5.78,1.1-7.94.18-2.51.1-4.28-.07-7.01-.07-1.16-.48-4.47-1.15-7.68s-1.46-6.03-1.66-5.89Z"/>
      <path class="cls-1" d="M190.45,531.11c.49-.36,1.18-.12,1.73-.04,4.02.96,7.79,2.53,11.2,4.9,9.19,5.85,8.45,18.31,2.17,26.08-2.81,3.73-6.61,6.84-10.91,8.64,3.55-2.81,6.66-6.12,9-9.95,4.69-7.2,5.71-17.28-1.67-22.93-2.97-2.52-6.44-4.59-9.94-6.31-.49-.21-1.04-.57-1.58-.39h0Z"/>
      <path class="cls-1" d="M205.69,560.68c5.99,8.88,17.47,11.98,27.81,11.74,10.59-.27,22.05-3.46,28.98-12.01-3.19,4.44-7.88,7.65-12.91,9.81-14.85,6.05-35.68,6.01-46.31-7.81,0,0,2.43-1.72,2.43-1.72h0Z"/>
    </g>
    <g>
      <g>
        <path class="cls-5" d="M608.92,530.94c-11.26-5.93-25.28-6.3-36.83-.97-10.3,4.75-18.42,13.91-22.05,24.63-1.72,5.08-3.52,9.98-3.9,15.41-.37,5.41.32,10.87,1.9,16.05s4.03,10.04,7.26,14.36c8.83,11.81,22.73,19.28,37.25,21.88,5.71,1.02,11.74,1.32,17.19-.68,5.89-2.17,10.51-6.78,14.72-11.44,8.94-9.91,16.96-20.65,23.92-32.03.59-.97,1.19-1.98,1.38-3.1.2-1.15-.05-2.33-.29-3.47-1.57-7.53-2.7-15.19-5.33-22.41-2.63-7.22-6.96-14.13-13.49-18.17-6.54-4.04-15.54-4.64-21.72-.05Z"/>
        <path class="cls-5" d="M610.54,621.79c.94,1.1,2.9,1.37,4.17,2.02,1.63.83,3.21,1.75,4.87,2.52,4.95,2.28,10.48,3.38,15.54.78,6.84-3.5,11.72-10.02,15.65-16.43,4.02-6.57,7.63-13.53,10.83-20.53.94-2.05,1.41-4.19-.3-5.96-4.1-4.26-11.29-9.14-11.3-9.14.44.3-11.7,17.41-12.65,18.75-5.19,7.37-10.62,14.5-17.26,20.67-1.45,1.34-2.95,2.63-4.51,3.83-1.6,1.22-3.56,2.17-5.05,3.49Z"/>
      </g>
      <path class="cls-2" d="M646.01,578.64c.16-.21-.89-2.53-1.06-2.92-4.43-9.94-9.78-19.36-16.55-27.91-1.97-2.5-7.66-8.52-8.43-9.16-.92-.76-9.26-7.92-9.26-7.92,0,0,4.21-1.63,6.98-1.5,2.58.12,7.25-.48,13.73,4.1,1.99,1.41,3.67,3.11,4.99,4.9,4.12,5.56,4.67,7.91,5.91,10.44.9,1.83,1.85,5.58,2.36,7.58.87,3.47,2.95,14,2.95,14,0,0,.85,4.18.5,5.04-.56,1.39-2.12,3.35-2.12,3.35Z"/>
      <path class="cls-1" d="M628.74,548.44c-2.9-3.48-6.02-6.8-9.58-9.5-3.54-2.71-7.59-4.62-11.57-6.98l1.65-2.47c3.55,2.67,7.52,5.1,10.89,8.32,3.36,3.18,6.11,6.85,8.62,10.63,0,0-2.51-3.78,0,0Z"/>
    </g>
    <g>
      <path class="cls-5" d="M489.05,620.9c2.03-14.07-5.54-28.67-15.15-38.48-3.11-3.17-6.79-5.93-11.04-7.34-5.88-1.96-13.05-2.05-18.15,1.92.12-.09-2.91-2.23-3.11-2.34-3.69-2-8.81-1.2-12.77-.57-9.94,1.58-19.49,6.71-26.74,13.65-10.98,10.51-12.99,27.6-9.43,41.75,3.76,14.95,13.67,29.49,28.4,35.43,4.57,1.84,9.47,2.82,14.39,2.96,9.87.28,19.52-2.97,27.59-8.58,7.3-5.06,12.98-12.65,17.79-20.03,3.71-5.7,7.23-11.52,8.21-18.36Z"/>
      <path class="cls-5" d="M502.23,632.47s-2.74-1.62-6.97-5.19c-1.56-1.32-6.21-6.37-6.21-6.37,0,0-3.97,12.86-12.7,24.85-8.49,11.65-23.21,20.31-23.21,20.31l13.01,8.62s15.28-8.83,22.51-18.45c7.23-9.62,13.58-23.77,13.58-23.77Z"/>
      <path class="cls-2" d="M394.47,630.87c.24-.23,3.28.81,3.72.91,11.78,2.78,24.3,5.83,36.17,1.84,1.7-.57,3.36-1.27,4.97-2.08-.73.37-1.47,1.19-2.16,1.66-1.01.69-2.04,1.35-3.05,2.05s-2.21,1.37-3.19,2.19c-2.43,2.01,2.2,6.35,3.51,7.72,3.93,4.13,8.63,7.79,13.99,9.86,5.36,2.08,15.99,1.03,16.17,1,0,0-1.86,1.83-5.23,3.94-2.74,1.71-6.19,3.17-8.21,3.94-4.51,1.72-11.72,2.86-18.05,2.3-2.74-.24-6.48-.9-9.21-1.82-3.75-1.27-6.1-2.61-7.44-3.36-1.23-.69-4.16-2.66-6.7-5.04-2.24-2.1-4.41-4.43-5.76-6.12-1.57-1.97-2.4-3.28-3.8-5.62-.6-1-2.27-4.2-3.53-7.23s-2.2-6.11-2.2-6.11Z"/>
      <path class="cls-1" d="M446.77,575.61c-.55.15-.8.77-1.09,1.21-1.91,3.4-3.61,7.07-4.64,10.82-2.9,8.84,3.64,16.57,11.58,19.87,4.09,1.84,8.52,2.82,13.04,3.13-4.57.95-9.45.52-13.88-.96-9.57-2.87-17.22-12.73-12.94-22.75,1.48-3.89,3.7-7.32,6.48-10.37.41-.38.84-.96,1.45-.95h0Z"/>
      <path class="cls-1" d="M453.86,608.68c-.94,17.37-18.16,29.22-33.8,32.6-5.36,1.06-11.05,1.06-16.19-.8,5.22,1.62,10.81,1.36,16.03.08,14.51-3.79,30.82-15.71,30.99-31.92,0,0,2.98.05,2.98.05h0Z"/>
    </g>
    <g>
      <g>
        <path class="cls-5" d="M63.08,484.83c11.61-5.2,25.63-4.67,36.82,1.38,9.97,5.39,17.49,15.06,20.43,25.99,1.39,5.18,2.88,10.19,2.91,15.63.03,5.42-1.01,10.83-2.92,15.9s-4.66,9.77-8.16,13.87c-9.56,11.22-23.92,17.79-38.57,19.46-5.76.66-11.8.57-17.11-1.78-5.74-2.54-10.06-7.44-13.96-12.36-8.29-10.46-15.61-21.69-21.83-33.49-.53-1.01-1.06-2.05-1.18-3.18-.12-1.16.2-2.32.51-3.44,2.05-7.41,3.67-14.99,6.75-22.03,3.08-7.04,7.84-13.65,14.63-17.27,6.78-3.62,15.81-3.63,21.68,1.33Z"/>
        <path class="cls-5" d="M55.66,575.39c-1.01,1.04-2.98,1.18-4.29,1.75-1.68.72-3.31,1.54-5.02,2.2-5.09,1.96-10.67,2.7-15.56-.21-6.61-3.93-11.06-10.74-14.57-17.4-3.6-6.81-6.75-13.99-9.5-21.18-.8-2.11-1.14-4.27.68-5.93,4.37-3.99,11.85-8.4,11.86-8.4-.46.27,10.56,18.12,11.42,19.52,4.71,7.69,9.67,15.15,15.9,21.73,1.36,1.43,2.77,2.81,4.26,4.11s3.42,2.4,4.82,3.8Z"/>
      </g>
      <path class="cls-2" d="M22.76,529.77c-.15-.22,1.31-2.18,1.51-2.56,5.06-9.64,11-18.7,18.3-26.8,2.13-2.36,8.18-8.01,9-8.6.97-.7,10.72-7.09,10.72-7.09,0,0-4-1.28-6.71-1.89-2.26-.5-7.39-1.18-14.54,2.45-2.18,1.1-4.52,3.64-6.05,5.26-4.58,4.85-6.34,9.86-6.34,9.86l-3.02,7.92-3.82,13.53s-1.19,3.4-.68,4.74c.54,1.42,1.63,3.17,1.63,3.17Z"/>
      <path class="cls-1" d="M42.18,501.03c2.74-3.61,5.72-7.1,9.28-10.06,3.56-2.99,7.68-5.17,11.39-7.6l1.49,2.57c-4.13,2.1-8.29,3.75-12,6.22-3.72,2.46-7.05,5.58-10.17,8.87,0,0,3.12-3.29,0,0Z"/>
    </g>
  </g>
</svg>